<svg xmlns="http://www.w3.org/2000/svg" xmlns:xlink="http://www.w3.org/1999/xlink" width="1080" zoomAndPan="magnify" viewBox="0 0 810 809.999993" height="1080" preserveAspectRatio="xMidYMid meet" version="1.0"><defs><clipPath id="3d9659a82a"><path d="M 288.945312 414 L 391 414 L 391 564.402344 L 288.945312 564.402344 Z M 288.945312 414 " clip-rule="nonzero"/></clipPath><clipPath id="e33be3e238"><path d="M 390.96875 559.398438 C 382.59375 562.632812 373.492188 564.398438 363.972656 564.398438 C 322.535156 564.398438 288.945312 530.808594 288.945312 489.359375 L 288.945312 414.328125 L 356.910156 414.328125 L 356.910156 489.359375 C 356.910156 517.738281 370.238281 543.0625 390.96875 559.398438 " clip-rule="nonzero"/></clipPath><clipPath id="acc77df520"><path d="M 0.945312 0.238281 L 103 0.238281 L 103 150.402344 L 0.945312 150.402344 Z M 0.945312 0.238281 " clip-rule="nonzero"/></clipPath><clipPath id="c6c85e134b"><path d="M 102.96875 145.398438 C 94.59375 148.632812 85.492188 150.398438 75.972656 150.398438 C 34.535156 150.398438 0.945312 116.808594 0.945312 75.359375 L 0.945312 0.328125 L 68.910156 0.328125 L 68.910156 75.359375 C 68.910156 103.738281 82.238281 129.0625 102.96875 145.398438 " clip-rule="nonzero"/></clipPath><clipPath id="6b8c06a0a0"><rect x="0" width="103" y="0" height="151"/></clipPath><clipPath id="5268488dec"><path d="M 370.800781 245.597656 L 438.757812 245.597656 L 438.757812 400.246094 L 370.800781 400.246094 Z M 370.800781 245.597656 " clip-rule="nonzero"/></clipPath><clipPath id="157cdbd7ed"><path d="M 0.800781 0.597656 L 68.757812 0.597656 L 68.757812 155.246094 L 0.800781 155.246094 Z M 0.800781 0.597656 " clip-rule="nonzero"/></clipPath><clipPath id="a9bcbec963"><rect x="0" width="69" y="0" height="156"/></clipPath><clipPath id="efe7acc3cf"><path d="M 370.980469 245.597656 L 521.558594 245.597656 L 521.558594 564.402344 L 370.980469 564.402344 Z M 370.980469 245.597656 " clip-rule="nonzero"/></clipPath><clipPath id="ef6cd1d275"><path d="M 370.980469 489.359375 L 370.980469 414.328125 L 439.199219 414.328125 L 439.199219 489.359375 C 439.199219 493.132812 442.253906 496.1875 446.015625 496.1875 C 449.789062 496.1875 452.835938 493.132812 452.835938 489.359375 L 452.835938 245.597656 L 521.054688 245.597656 L 521.054688 489.359375 C 521.054688 530.808594 487.464844 564.398438 446.015625 564.398438 C 404.574219 564.398438 370.980469 530.808594 370.980469 489.359375 " clip-rule="nonzero"/></clipPath><clipPath id="92b3609fcf"><path d="M 0.980469 0.597656 L 151.28125 0.597656 L 151.28125 319.402344 L 0.980469 319.402344 Z M 0.980469 0.597656 " clip-rule="nonzero"/></clipPath><clipPath id="8b15fb7b5a"><path d="M 0.980469 244.359375 L 0.980469 169.328125 L 69.199219 169.328125 L 69.199219 244.359375 C 69.199219 248.132812 72.253906 251.1875 76.015625 251.1875 C 79.789062 251.1875 82.835938 248.132812 82.835938 244.359375 L 82.835938 0.597656 L 151.054688 0.597656 L 151.054688 244.359375 C 151.054688 285.808594 117.464844 319.398438 76.015625 319.398438 C 34.574219 319.398438 0.980469 285.808594 0.980469 244.359375 " clip-rule="nonzero"/></clipPath><clipPath id="8d13173aa5"><rect x="0" width="152" y="0" height="320"/></clipPath></defs><g clip-path="url(#3d9659a82a)"><g clip-path="url(#e33be3e238)"><g transform="matrix(1, 0, 0, 1, 288, 414)"><g clip-path="url(#6b8c06a0a0)"><g clip-path="url(#acc77df520)"><g clip-path="url(#c6c85e134b)"><rect x="-466.2" width="1166.4" fill="#6c2dc6" height="1166.39999" y="-592.199998" fill-opacity="1"/></g></g></g></g></g></g><g clip-path="url(#5268488dec)"><g transform="matrix(1, 0, 0, 1, 370, 245)"><g clip-path="url(#a9bcbec963)"><g clip-path="url(#157cdbd7ed)"><rect x="-548.2" width="1166.4" fill="#6c2dc6" height="1166.39999" y="-423.199998" fill-opacity="1"/></g></g></g></g><g clip-path="url(#efe7acc3cf)"><g clip-path="url(#ef6cd1d275)"><g transform="matrix(1, 0, 0, 1, 370, 245)"><g clip-path="url(#8d13173aa5)"><g clip-path="url(#92b3609fcf)"><g clip-path="url(#8b15fb7b5a)"><rect x="-548.2" width="1166.4" fill="#6c2dc6" height="1166.39999" y="-423.199998" fill-opacity="1"/></g></g></g></g></g></g></svg>